Coordinates
version=1
nRows=27
nColumns=38
inDegrees=no

Units are S.I. units (second, meters, Newtons, ...)
If the header above contains a line with 'inDegrees', this indicates whether rotational values are in degrees (yes) or radians (no).

endheader
time	pelvis_tilt	pelvis_list	pelvis_rotation	pelvis_tx	pelvis_ty	pelvis_tz	hip_flexion_r	hip_adduction_r	hip_rotation_r	knee_angle_r	ankle_angle_r	subtalar_angle_r	mtp_angle_r	hip_flexion_l	hip_adduction_l	hip_rotation_l	knee_angle_l	ankle_angle_l	subtalar_angle_l	mtp_angle_l	lumbar_extension	lumbar_bending	lumbar_rotation	arm_flex_r	arm_add_r	arm_rot_r	elbow_flex_r	pro_sup_r	wrist_flex_r	wrist_dev_r	arm_flex_l	arm_add_l	arm_rot_l	elbow_flex_l	pro_sup_l	wrist_flex_l	wrist_dev_l
0	2.89952	1.27258	-1.22862	0.714132	-0.225019	0.951208	-0.348318	0.071739	-0.0365028	0.158505	-0.281707	0	0	-0.33819	-0.167971	-0.0844852	0.275691	-0.138085	0	0	-0.33634	0.211053	-0.139136	0.0964547	-0.413111	0.495591	0.894211	1.5708	0	0	0.00833685	-0.24306	0.397181	0.747889	1.5708	0	0
0.01	2.88885	1.28562	-1.21734	0.714414	-0.224309	0.950933	-0.334908	0.0711519	-0.0359973	0.156126	-0.284251	0	0	-0.324122	-0.166395	-0.0781694	0.273924	-0.141067	0	0	-0.320573	0.206697	-0.14014	0.105347	-0.414747	0.522918	0.877679	1.5708	0	0	0.0160427	-0.244167	0.417942	0.73454	1.5708	0	0
0.02	2.88869	1.2862	-1.21724	0.714496	-0.22429	0.950883	-0.334585	0.0711924	-0.0350706	0.155488	-0.284315	0	0	-0.323356	-0.166264	-0.0780405	0.274367	-0.140907	0	0	-0.319879	0.206608	-0.140118	0.105424	-0.414817	0.52383	0.877428	1.5708	0	0	0.016111	-0.243972	0.419566	0.736692	1.5708	0	0
0.03	2.88871	1.28648	-1.21736	0.714573	-0.224279	0.950845	-0.334734	0.071269	-0.0339019	0.154446	-0.284454	0	0	-0.323041	-0.166137	-0.0778387	0.274505	-0.140738	0	0	-0.31955	0.20662	-0.140084	0.105352	-0.414825	0.524363	0.877338	1.5708	0	0	0.0161339	-0.243559	0.420307	0.738936	1.5708	0	0
0.04	2.88811	1.28638	-1.21686	0.714643	-0.224262	0.950841	-0.334691	0.0714707	-0.0344264	0.154594	-0.284718	0	0	-0.323079	-0.166331	-0.0778251	0.274517	-0.140819	0	0	-0.319591	0.206969	-0.13999	0.105319	-0.414956	0.524979	0.877316	1.5708	0	0	0.0162144	-0.243145	0.421223	0.740928	1.5708	0	0
0.05	2.88726	1.28616	-1.21621	0.714724	-0.224262	0.950855	-0.334476	0.0716874	-0.0355891	0.15534	-0.284931	0	0	-0.323262	-0.166548	-0.0777343	0.274468	-0.140825	0	0	-0.319837	0.207371	-0.13977	0.105269	-0.414978	0.525245	0.877235	1.5708	0	0	0.0163778	-0.242936	0.422645	0.74293	1.5708	0	0
0.06	2.88654	1.28617	-1.21572	0.714815	-0.224258	0.95086	-0.334238	0.0718481	-0.0359659	0.15569	-0.28491	0	0	-0.323248	-0.166665	-0.0775591	0.274449	-0.140751	0	0	-0.319875	0.207686	-0.139512	0.10516	-0.415099	0.525395	0.877283	1.5708	0	0	0.0165899	-0.242355	0.423123	0.744784	1.5708	0	0
0.07	2.88575	1.28615	-1.21514	0.714918	-0.224252	0.950866	-0.334123	0.0720841	-0.0359764	0.155846	-0.284775	0	0	-0.323321	-0.16675	-0.0771355	0.274313	-0.140623	0	0	-0.319928	0.207955	-0.139298	0.105032	-0.415104	0.525261	0.877286	1.5708	0	0	0.0166326	-0.241948	0.423521	0.746873	1.5708	0	0
0.08	2.88509	1.28621	-1.21468	0.715026	-0.224227	0.950851	-0.334117	0.0723213	-0.0356565	0.155602	-0.284679	0	0	-0.323295	-0.166758	-0.0766129	0.274229	-0.140412	0	0	-0.319835	0.208134	-0.139154	0.104832	-0.415132	0.525177	0.87737	1.5708	0	0	0.016516	-0.241622	0.423871	0.748817	1.5708	0	0
0.09	2.88425	1.28646	-1.21404	0.715135	-0.224196	0.950793	-0.334164	0.0726495	-0.0349089	0.15473	-0.284694	0	0	-0.323069	-0.166633	-0.0755688	0.274171	-0.140118	0	0	-0.319459	0.20825	-0.139095	0.104571	-0.415202	0.525231	0.877535	1.5708	0	0	0.0162137	-0.241458	0.424332	0.750654	1.5708	0	0
0.1	2.88306	1.28682	-1.21303	0.715251	-0.224137	0.950725	-0.334089	0.0730239	-0.0341261	0.153802	-0.284821	0	0	-0.32273	-0.166519	-0.0740796	0.274043	-0.139631	0	0	-0.318793	0.208389	-0.139108	0.104306	-0.415393	0.525606	0.877651	1.5708	0	0	0.0157311	-0.241595	0.425274	0.752476	1.5708	0	0
0.11	2.88175	1.2871	-1.21197	0.715381	-0.224078	0.950681	-0.333812	0.0733649	-0.0339177	0.15356	-0.284902	0	0	-0.32257	-0.166131	-0.0720183	0.273656	-0.139278	0	0	-0.318236	0.208581	-0.139074	0.10404	-0.415502	0.525743	0.877655	1.5708	0	0	0.015336	-0.241467	0.425365	0.7541	1.5708	0	0
0.12	2.87999	1.28721	-1.21034	0.715522	-0.22404	0.950673	-0.333012	0.0736966	-0.0342088	0.154884	-0.284827	0	0	-0.322793	-0.165464	-0.0679806	0.272479	-0.138698	0	0	-0.317925	0.208983	-0.139181	0.103932	-0.415598	0.526118	0.877591	1.5708	0	0	0.0149421	-0.24103	0.424192	0.755638	1.5708	0	0
0.13	2.88153	1.28734	-1.21217	0.715736	-0.224044	0.950745	-0.333625	0.0737053	-0.0336148	0.153347	-0.285013	0	0	-0.325294	-0.162522	-0.0594475	0.266474	-0.138833	0	0	-0.318174	0.208229	-0.139116	0.10386	-0.415177	0.526153	0.877077	1.5708	0	0	0.0147	-0.240997	0.423284	0.75692	1.5708	0	0
0.14	2.88135	1.28728	-1.21208	0.715916	-0.224036	0.950765	-0.333929	0.0740529	-0.033025	0.152717	-0.285349	0	0	-0.325855	-0.160688	-0.0531761	0.265378	-0.138408	0	0	-0.318296	0.208167	-0.139246	0.103765	-0.415064	0.526417	0.876849	1.5708	0	0	0.0142203	-0.24115	0.422745	0.758238	1.5708	0	0
0.15	2.88168	1.28689	-1.21257	0.716143	-0.224044	0.950854	-0.334005	0.0741183	-0.0326882	0.153633	-0.285421	0	0	-0.325159	-0.1588	-0.0481993	0.268526	-0.136769	0	0	-0.318914	0.207981	-0.139144	0.103758	-0.414858	0.526819	0.876452	1.5708	0	0	0.0139491	-0.241671	0.422757	0.759387	1.5708	0	0
0.16	2.88609	1.28616	-1.21752	0.716435	-0.224072	0.951102	-0.335343	0.0733683	-0.0320301	0.153243	-0.285607	0	0	-0.325951	-0.155735	-0.0437821	0.269715	-0.135652	0	0	-0.320606	0.206552	-0.138534	0.103791	-0.414177	0.526782	0.875557	1.5708	0	0	0.0142759	-0.242051	0.422423	0.759885	1.5708	0	0
0.17	2.89365	1.28473	-1.22554	0.71672	-0.224095	0.951461	-0.33794	0.0719848	-0.0318486	0.152367	-0.286085	0	0	-0.327381	-0.152914	-0.0420404	0.271383	-0.134874	0	0	-0.323376	0.204427	-0.13809	0.103767	-0.413205	0.526198	0.87464	1.5708	0	0	0.0146867	-0.242691	0.422186	0.760335	1.5708	0	0
0.18	2.89953	1.28141	-1.23249	0.716557	-0.223748	0.951623	-0.343322	0.0706534	-0.0337636	0.149992	-0.288088	0	0	-0.295743	-0.175209	-0.12892	0.360896	-0.121465	0	0	-0.32645	0.204211	-0.138205	0.103139	-0.414577	0.526546	0.876558	1.5708	0	0	0.0129289	-0.242276	0.420321	0.762098	1.5708	0	0
0.19	2.89817	1.28207	-1.23119	0.716683	-0.223645	0.951551	-0.342667	0.0709757	-0.0333987	0.149832	-0.287941	0	0	-0.295838	-0.175137	-0.127391	0.359514	-0.119734	0	0	-0.325464	0.204283	-0.1385	0.102639	-0.414615	0.526627	0.876384	1.5708	0	0	0.0124927	-0.242301	0.42008	0.761737	1.5708	0	0
0.2	2.8977	1.2824	-1.23084	0.71681	-0.223589	0.951524	-0.342361	0.0711238	-0.033287	0.149753	-0.287808	0	0	-0.296968	-0.174564	-0.124685	0.356041	-0.119712	0	0	-0.325096	0.204202	-0.138612	0.102379	-0.414741	0.526801	0.876157	1.5708	0	0	0.0121443	-0.242723	0.420378	0.761541	1.5708	0	0
0.21	2.89752	1.28266	-1.23082	0.716942	-0.223552	0.951515	-0.342036	0.0712076	-0.0334746	0.149885	-0.287727	0	0	-0.298174	-0.173865	-0.122085	0.352217	-0.120417	0	0	-0.324923	0.204101	-0.138664	0.102182	-0.414901	0.526783	0.875928	1.5708	0	0	0.0118987	-0.243232	0.420517	0.76136	1.5708	0	0
0.22	2.89742	1.28272	-1.23095	0.717075	-0.223549	0.951515	-0.341856	0.0712899	-0.0331712	0.150074	-0.287669	0	0	-0.299506	-0.173181	-0.119549	0.348498	-0.121329	0	0	-0.325079	0.204095	-0.138608	0.101973	-0.415004	0.526426	0.875874	1.5708	0	0	0.0119071	-0.243353	0.420051	0.760638	1.5708	0	0
0.23	2.89717	1.28253	-1.23109	0.71721	-0.223587	0.951528	-0.341859	0.071437	-0.0323851	0.150346	-0.287598	0	0	-0.301015	-0.172605	-0.117231	0.345052	-0.12234	0	0	-0.325614	0.204119	-0.138365	0.101844	-0.415108	0.526056	0.875917	1.5708	0	0	0.0120562	-0.243292	0.419208	0.759608	1.5708	0	0
0.24	2.89695	1.28266	-1.23101	0.717348	-0.22358	0.951517	-0.341611	0.071561	-0.0321741	0.150536	-0.287515	0	0	-0.301975	-0.172077	-0.114934	0.341986	-0.12334	0	0	-0.325639	0.204006	-0.138448	0.101567	-0.415215	0.525944	0.875912	1.5708	0	0	0.0120049	-0.243317	0.418068	0.758502	1.5708	0	0
0.25	2.89673	1.2829	-1.23075	0.717475	-0.223543	0.951503	-0.341382	0.0717241	-0.032173	0.150551	-0.287428	0	0	-0.302741	-0.171566	-0.112388	0.339054	-0.124047	0	0	-0.325459	0.20389	-0.138746	0.101244	-0.415341	0.525954	0.875802	1.5708	0	0	0.0118816	-0.243475	0.416976	0.757355	1.5708	0	0
0.26	2.89657	1.28312	-1.23055	0.717601	-0.223509	0.951479	-0.341869	0.0722007	-0.031823	0.148884	-0.287547	0	0	-0.30349	-0.171027	-0.109758	0.336228	-0.124563	0	0	-0.325332	0.203857	-0.138954	0.101159	-0.41537	0.526028	0.875416	1.5708	0	0	0.0117636	-0.243926	0.416757	0.756192	1.5708	0	0
